<svg xmlns="http://www.w3.org/2000/svg" width="720" height="420" viewBox="0 0 720 420">
  <rect width="100%" height="100%" fill="white"/>
  <line x1="50" y1="370" x2="670" y2="370" stroke="black"/>
  <line x1="50" y1="50" x2="50" y2="370" stroke="black"/>
  <text x="360.0" y="28" text-anchor="middle" font-family="Arial" font-size="18">PATP adaptation of the generating element</text>
  <text x="360.0" y="410" text-anchor="middle" font-family="Arial" font-size="14">alpha</text>
  <text x="18" y="210.0" text-anchor="middle" font-family="Arial" font-size="14" transform="rotate(-90 18 210.0)">validation macro-F1</text>
  <polyline points="50.0,50.0 81.0,50.0 112.0,50.0 143.0,50.0 174.0,50.0 205.0,50.0 236.0,50.0 267.0,50.0 298.0,74.3 329.0,62.1 360.0,267.5 391.0,74.3 422.0,74.3 453.0,62.1 484.0,50.0 515.0,50.0 546.0,50.0 577.0,50.0 608.0,50.0 639.0,62.1 670.0,62.1" fill="none" stroke="#1f77b4" stroke-width="2"/>
  <circle cx="50.0" cy="50.0" r="3" fill="#1f77b4"/><circle cx="81.0" cy="50.0" r="3" fill="#1f77b4"/><circle cx="112.0" cy="50.0" r="3" fill="#1f77b4"/><circle cx="143.0" cy="50.0" r="3" fill="#1f77b4"/><circle cx="174.0" cy="50.0" r="3" fill="#1f77b4"/><circle cx="205.0" cy="50.0" r="3" fill="#1f77b4"/><circle cx="236.0" cy="50.0" r="3" fill="#1f77b4"/><circle cx="267.0" cy="50.0" r="3" fill="#1f77b4"/><circle cx="298.0" cy="74.3" r="3" fill="#1f77b4"/><circle cx="329.0" cy="62.1" r="3" fill="#1f77b4"/><circle cx="360.0" cy="267.5" r="3" fill="#1f77b4"/><circle cx="391.0" cy="74.3" r="3" fill="#1f77b4"/><circle cx="422.0" cy="74.3" r="3" fill="#1f77b4"/><circle cx="453.0" cy="62.1" r="3" fill="#1f77b4"/><circle cx="484.0" cy="50.0" r="3" fill="#1f77b4"/><circle cx="515.0" cy="50.0" r="3" fill="#1f77b4"/><circle cx="546.0" cy="50.0" r="3" fill="#1f77b4"/><circle cx="577.0" cy="50.0" r="3" fill="#1f77b4"/><circle cx="608.0" cy="50.0" r="3" fill="#1f77b4"/><circle cx="639.0" cy="62.1" r="3" fill="#1f77b4"/><circle cx="670.0" cy="62.1" r="3" fill="#1f77b4"/>
  <text x="50" y="390" font-family="Arial" font-size="12">0.0</text>
  <text x="670" y="390" text-anchor="end" font-family="Arial" font-size="12">1.0</text>
  <text x="42" y="370" text-anchor="end" font-family="Arial" font-size="12">0.84</text>
  <text x="42" y="50" text-anchor="end" font-family="Arial" font-size="12">1.00</text>
</svg>
